<svg width="28" height="24" viewBox="0 0 28 24" fill="none" xmlns="http://www.w3.org/2000/svg">
<path d="M14 0.745514C6.34925 0.745514 0.125 4.95126 0.125 10.1205V14.938C0.125 16.6386 0.8787 18.2283 2.19318 19.2993C5.32218 21.8498 9.51543 23.2545 13.9999 23.2545C18.4844 23.2545 22.6777 21.8497 25.8067 19.299C27.1211 18.228 27.8749 16.6388 27.8749 14.9378V10.1205C27.8749 4.95126 21.6506 0.745514 13.9999 0.745514H14ZM14 18.2633C7.383 18.2633 2 14.6105 2 10.1205C2 5.63076 7.383 1.97776 14 1.97776C20.617 1.97776 26 5.63051 26 10.1205C26 14.6103 20.617 18.2633 14 18.2633Z" fill="white"/>
</svg>
