<svg width="19" height="27" viewBox="0 0 19 27" fill="none" xmlns="http://www.w3.org/2000/svg">
<path d="M18.2824 19.4725C17.3192 23.0145 14.8203 26.8391 9.50001 26.8391C3.99801 26.8391 1.53138 22.9596 0.640922 19.387L2.39092 17.6635L5.46684 21.1746C5.91481 21.6268 6.08424 21.6044 6.46227 21.2194L9.46119 17.8609L12.4557 21.2378C12.8785 21.669 12.9149 21.6913 13.4539 21.1425L16.3814 17.7545L18.2824 19.4725ZM2.88501 16.0926L5.95538 19.1601L8.95546 16.0955C9.08706 15.9611 9.29281 15.9359 9.45529 15.8856C9.64146 15.8856 9.82066 15.9597 9.95226 16.0928L12.9439 19.1069L15.8699 16.304C16.042 16.1262 16.4243 15.8561 16.8667 16.2971L18.6419 17.9322C18.7679 17.0657 18.8057 16.1767 18.7748 15.5116C18.7034 14.0332 18.4752 12.4917 18.1238 11.0357L16.868 12.2705C16.7351 12.4021 16.4971 12.4525 16.3696 12.4651C16.1819 12.4637 16.0014 12.3811 15.8726 12.2481L12.9466 9.23515L9.95499 12.7716C9.54485 13.186 9.49299 13.3106 8.95819 12.7688L5.95665 9.44113L2.88511 12.3797C2.61213 12.6527 2.16837 12.5883 1.89525 12.3153L0.83831 11.2316C0.48831 12.7352 0.26991 14.2681 0.22514 15.7845C0.208392 16.3501 0.241887 16.9899 0.324487 17.6732L1.89526 16.0982C2.16972 15.8251 2.61212 15.8195 2.88512 16.0925L2.88501 16.0926ZM2.39089 10.7656L5.46652 7.68971C5.59811 7.55812 5.81652 7.48246 5.96498 7.48395C6.15262 7.48395 6.33035 7.56096 6.46195 7.69392L9.46087 10.7558L12.4554 7.73884C12.587 7.60588 12.8279 7.52043 12.9539 7.53308C13.1415 7.53308 13.3221 7.61009 13.4523 7.74305L16.3798 10.7545L17.6957 9.43997C16.1151 4.34543 13.0031 0.159428 9.50015 0.159428C6.00861 0.159428 2.83469 4.44897 1.26115 9.63743L2.39089 10.7656Z" fill="white"/>
</svg>
