<svg width="27" height="27" viewBox="0 0 27 27" fill="none" xmlns="http://www.w3.org/2000/svg">
<path fill-rule="evenodd" clip-rule="evenodd" d="M13.5 23.1725C8.59995 23.1725 4.6134 19.1859 4.6134 14.2859C4.6134 13.9946 4.84956 13.7585 5.14076 13.7585H21.8592C22.1504 13.7585 22.3865 13.9946 22.3865 14.2859C22.3865 19.1859 18.4 23.1725 13.4999 23.1725H13.5ZM7.03778 9.56359C6.77111 9.44661 6.64965 9.13558 6.76663 8.86882C6.88361 8.60208 7.19465 8.48078 7.46141 8.59767L10.5653 9.95874C10.7571 10.0428 10.8809 10.2323 10.8809 10.4417C10.8809 10.6511 10.757 10.8406 10.5653 10.9247L7.46141 12.2857C7.39241 12.3159 7.3206 12.3303 7.24985 12.3303C7.04691 12.3303 6.85338 12.2124 6.76662 12.0146C6.64964 11.7479 6.7711 11.4368 7.03777 11.3198L9.04036 10.4417L7.03778 9.56359ZM16.4347 9.95874L19.5386 8.59767C19.8053 8.48078 20.1163 8.60206 20.2333 8.86882C20.3503 9.13556 20.2288 9.44662 19.9622 9.56359L17.9596 10.4417L19.9622 11.3198C20.2289 11.4368 20.3503 11.7478 20.2333 12.0146C20.1466 12.2124 19.953 12.3303 19.7501 12.3303C19.6793 12.3303 19.6075 12.316 19.5385 12.2857L16.4347 10.9247C16.2429 10.8405 16.1191 10.6511 16.1191 10.4417C16.1191 10.2323 16.2429 10.0428 16.4347 9.95873L16.4347 9.95874ZM23.0459 3.95282C20.4962 1.40311 17.1059 -0.00111008 13.5 -0.00111008C9.89415 -0.00111008 6.50385 1.40311 3.95415 3.95282C1.40423 6.50274 0 9.89282 0 13.4989C0 17.105 1.40423 20.495 3.95415 23.0447C6.50385 25.5947 9.89415 26.9989 13.5 26.9989C17.1059 26.9989 20.4962 25.5947 23.0459 23.0447C25.5958 20.495 27 17.1047 27 13.4989C27 9.89304 25.5958 6.50274 23.0459 3.95282Z" fill="white"/>
</svg>
