<svg width="22" height="23" viewBox="0 0 22 23" fill="none" xmlns="http://www.w3.org/2000/svg">
<path d="M21.001 16.303L18.7099 13.9652C18.217 13.4985 17.5954 13.1892 16.9248 13.0772C16.2542 12.9652 15.5654 13.0556 14.9467 13.3366L13.9506 12.3442C15.1244 10.7815 15.6605 8.83387 15.4509 6.89326C15.2413 4.95264 14.3016 3.16317 12.821 1.88509C11.3404 0.607007 9.42873 -0.0647915 7.47093 0.00493095C5.51312 0.0746534 3.65451 0.88072 2.26925 2.26086C0.883986 3.64101 0.0749302 5.49275 0.00494923 7.44333C-0.0650318 9.3939 0.609258 11.2985 1.89208 12.7736C3.1749 14.2488 4.971 15.185 6.91882 15.3938C8.86663 15.6026 10.8215 15.0685 12.39 13.899L13.375 14.8805C13.0597 15.4976 12.9467 16.1977 13.0519 16.8822C13.1572 17.5668 13.4753 18.2011 13.9616 18.6959L16.3081 21.0337C16.9307 21.6532 17.7746 22.0011 18.6545 22.0011C19.5344 22.0011 20.3784 21.6532 21.001 21.0337C21.3172 20.7256 21.5685 20.3576 21.7401 19.9514C21.9116 19.5452 22 19.109 22 18.6683C22 18.2276 21.9116 17.7914 21.7401 17.3852C21.5685 16.979 21.3172 16.6111 21.001 16.303ZM11.6152 11.6274C10.8407 12.3971 9.8546 12.9209 8.78148 13.1325C7.70836 13.3441 6.59636 13.2341 5.58596 12.8164C4.57555 12.3986 3.71208 11.6919 3.10461 10.7855C2.49713 9.87913 2.17292 8.81368 2.17292 7.72379C2.17292 6.63389 2.49713 5.56844 3.10461 4.66204C3.71208 3.75563 4.57555 3.04893 5.58596 2.63121C6.59636 2.21349 7.70836 2.10348 8.78148 2.3151C9.8546 2.52671 10.8407 3.05045 11.6152 3.82015C12.1306 4.33232 12.5395 4.94075 12.8184 5.6106C13.0974 6.28045 13.241 6.99856 13.241 7.72379C13.241 8.44902 13.0974 9.16712 12.8184 9.83698C12.5395 10.5068 12.1306 11.1153 11.6152 11.6274ZM19.4404 19.4237C19.3375 19.527 19.2151 19.6091 19.0802 19.6651C18.9453 19.721 18.8006 19.7499 18.6545 19.7499C18.5084 19.7499 18.3637 19.721 18.2289 19.6651C18.094 19.6091 17.9716 19.527 17.8687 19.4237L15.5222 17.0859C15.4185 16.9834 15.3362 16.8614 15.28 16.7271C15.2238 16.5927 15.1949 16.4485 15.1949 16.303C15.1949 16.1574 15.2238 16.0133 15.28 15.8789C15.3362 15.7445 15.4185 15.6226 15.5222 15.52C15.6251 15.4167 15.7476 15.3346 15.8824 15.2787C16.0173 15.2227 16.162 15.1939 16.3081 15.1939C16.4542 15.1939 16.5989 15.2227 16.7337 15.2787C16.8686 15.3346 16.991 15.4167 17.0939 15.52L19.4404 17.8578C19.5441 17.9603 19.6264 18.0823 19.6826 18.2167C19.7388 18.351 19.7678 18.4952 19.7678 18.6407C19.7678 18.7863 19.7388 18.9304 19.6826 19.0648C19.6264 19.1992 19.5441 19.3212 19.4404 19.4237Z" fill="url(#paint0_radial_65_3431)"/>
<defs>
<radialGradient id="paint0_radial_65_3431" cx="0" cy="0" r="1" gradientUnits="userSpaceOnUse" gradientTransform="translate(11 11.0006) rotate(90) scale(11.0006 11)">
<stop stop-color="#61F2E2"/>
<stop offset="1" stop-color="#8B7FD8"/>
</radialGradient>
</defs>
</svg>
