<svg width="80" height="19" viewBox="0 0 80 19" fill="none" xmlns="http://www.w3.org/2000/svg">
<path d="M10.5873 13.5921C10.5873 12.3873 9.18682 11.5228 6.38581 10.9986H6.33607C5.22421 10.8041 4.14129 10.4711 3.11282 10.0074C2.30297 9.66044 1.61174 9.08654 1.12316 8.35548C0.717216 7.73704 0.496378 7.01624 0.486465 6.27736C0.486465 4.89635 1.09552 3.76203 2.31364 2.87439C3.22028 2.21993 4.26985 1.78914 5.37611 1.61741C6.48236 1.44568 7.61373 1.53792 8.67724 1.88654C9.2428 2.05233 9.79044 2.27367 10.3121 2.54731C10.6702 2.75215 11.1444 3.04509 11.7347 3.42613C12.0011 3.61207 12.1843 3.89414 12.2454 4.21245C12.2828 4.36812 12.2874 4.52984 12.2589 4.68737C12.2303 4.84491 12.1693 4.99482 12.0796 5.12762C11.9929 5.26288 11.8794 5.379 11.7459 5.46879C11.6124 5.55858 11.4619 5.62013 11.3036 5.64963C11.1444 5.68676 10.9792 5.69006 10.8186 5.65932C10.6581 5.62858 10.5058 5.56449 10.3718 5.47122C9.74351 5.03367 9.07771 4.65225 8.38211 4.33139C7.79684 4.08104 7.16528 3.95609 6.52841 3.96466C5.61097 3.92482 4.70543 4.18342 3.94848 4.70142C3.28526 5.19259 2.95365 5.7157 2.95365 6.27075C2.94584 6.51504 3.01293 6.75591 3.14598 6.96126C3.58813 7.69251 4.78966 8.24315 6.75059 8.61318H6.79701C7.93019 8.81684 9.03616 9.1494 10.0932 9.60434C12.0674 10.5735 13.0534 11.906 13.0512 13.602C13.0512 15.0755 12.399 16.2869 11.0947 17.2362C9.77901 18.176 8.19337 18.6663 6.57483 18.6338C4.49011 18.6183 2.45291 17.8254 0.463252 16.255C0.335056 16.1542 0.228914 16.0283 0.151355 15.8852C0.0737967 15.742 0.0264617 15.5845 0.0122622 15.4224C-0.0110737 15.2626 -0.00102862 15.0997 0.0417681 14.9439C0.0845647 14.7882 0.159191 14.6429 0.26097 14.5172C0.365218 14.3913 0.493781 14.2875 0.639036 14.212C0.784291 14.1365 0.943281 14.0909 1.10658 14.0778C1.26682 14.0571 1.42964 14.0709 1.58409 14.1182C1.73854 14.1655 1.88101 14.2452 2.00192 14.352C3.54944 15.5876 5.07374 16.1999 6.57483 16.1889C7.60578 16.2379 8.6246 15.9502 9.47642 15.3696C10.2159 14.8145 10.5873 14.2264 10.5873 13.5921Z" fill="white"/>
<path d="M19.5408 6.76306C19.7152 6.76162 19.8881 6.79444 20.0497 6.85963C20.2113 6.92482 20.3584 7.02112 20.4826 7.143C20.6088 7.26042 20.709 7.40272 20.7769 7.56085C20.8449 7.71898 20.879 7.88947 20.8772 8.06147C20.8721 8.41037 20.7307 8.74355 20.483 8.99028C20.2354 9.23702 19.901 9.3779 19.5508 9.38302H18.9539V16.0172C19.1281 16.0148 19.3008 16.0485 19.4613 16.1162C19.6217 16.1838 19.7662 16.284 19.8857 16.4103C20.008 16.5341 20.1047 16.6806 20.1701 16.8416C20.2356 17.0026 20.2685 17.1749 20.267 17.3486C20.2702 17.523 20.238 17.6963 20.1725 17.858C20.1069 18.0198 20.0094 18.1667 19.8856 18.2901C19.7617 18.4134 19.6143 18.5106 19.4519 18.5759C19.2896 18.6412 19.1157 18.6733 18.9406 18.6701C18.237 18.6701 17.5622 18.3917 17.0647 17.896C16.5672 17.4003 16.2877 16.7281 16.2877 16.0271V9.37971H15.598C15.3401 9.37489 15.0892 9.29526 14.876 9.15056C14.6628 9.00587 14.4966 8.80238 14.3977 8.56502C14.2989 8.32766 14.2716 8.06673 14.3193 7.81416C14.3669 7.5616 14.4875 7.32836 14.6661 7.143C14.7875 7.02005 14.9327 6.92296 15.0929 6.85765C15.2531 6.79233 15.4249 6.76015 15.598 6.76306H16.2944V3.30393C16.2913 3.1306 16.3246 2.95854 16.3919 2.7987C16.4593 2.63887 16.5593 2.49476 16.6857 2.37554C16.8103 2.25326 16.9579 2.15674 17.1201 2.09153C17.2823 2.02633 17.4559 1.99373 17.6307 1.9956C17.8058 1.99247 17.9797 2.02451 18.1421 2.08981C18.3044 2.15511 18.4519 2.25234 18.5757 2.37569C18.6995 2.49904 18.7971 2.64597 18.8626 2.80773C18.9282 2.96948 18.9603 3.14273 18.9572 3.31714V6.76306H19.5408Z" fill="white"/>
<path d="M26.7036 3.30381V3.80269C26.7076 3.97438 26.6768 4.14511 26.613 4.30464C26.5491 4.46417 26.4536 4.60921 26.3322 4.73107C26.2166 4.85426 26.0762 4.95177 25.9202 5.01723C25.7642 5.0827 25.5961 5.11466 25.4269 5.11101C25.2553 5.11373 25.085 5.08142 24.9265 5.01608C24.7679 4.95074 24.6245 4.85374 24.505 4.73107C24.3816 4.61016 24.2842 4.46551 24.2186 4.30591C24.153 4.14632 24.1207 3.97511 24.1237 3.80269V3.30381C24.1224 3.13505 24.1555 2.96778 24.221 2.81217C24.2866 2.65655 24.3832 2.51583 24.505 2.39855C24.625 2.2765 24.7685 2.17992 24.9269 2.11462C25.0854 2.04932 25.2554 2.01666 25.4269 2.01861C25.5952 2.01471 25.7626 2.04558 25.9184 2.10926C26.0742 2.17294 26.2151 2.26806 26.3322 2.38864C26.4539 2.50756 26.5497 2.65021 26.6136 2.80767C26.6775 2.96513 26.7081 3.13402 26.7036 3.30381ZM24.4951 7.16931C24.7421 6.93307 25.0712 6.80116 25.4136 6.80116C25.756 6.80116 26.0852 6.93307 26.3322 7.16931C26.4555 7.29187 26.5522 7.43844 26.6161 7.59989C26.68 7.76133 26.7098 7.93417 26.7036 8.10761V17.3716C26.7085 17.5414 26.6781 17.7105 26.6142 17.868C26.5502 18.0255 26.4542 18.1681 26.3322 18.2868C26.2151 18.4073 26.0742 18.5025 25.9184 18.5662C25.7626 18.6298 25.5952 18.6607 25.4269 18.6568C25.0835 18.6568 24.754 18.5218 24.51 18.2812C24.266 18.0405 24.1272 17.7137 24.1237 17.3716V8.09439C24.1175 7.92096 24.1473 7.74812 24.2112 7.58667C24.2751 7.42523 24.3717 7.27865 24.4951 7.1561V7.16931Z" fill="white"/>
<path d="M33.8896 6.76299C34.064 6.76155 34.2369 6.79436 34.3985 6.85956C34.5601 6.92475 34.7072 7.02105 34.8314 7.14293C34.958 7.25996 35.0586 7.4022 35.1266 7.56042C35.1946 7.71863 35.2284 7.88931 35.226 8.0614C35.2279 8.23439 35.1939 8.40591 35.126 8.56512C35.058 8.72434 34.9577 8.86781 34.8314 8.98648C34.71 9.11305 34.5637 9.2133 34.4017 9.28095C34.2396 9.3486 34.0653 9.3822 33.8896 9.37964H33.2927V16.0171C33.4669 16.0147 33.6397 16.0484 33.8001 16.1161C33.9605 16.1838 34.1051 16.2839 34.2245 16.4102C34.3469 16.534 34.4435 16.6806 34.509 16.8416C34.5744 17.0026 34.6073 17.1748 34.6059 17.3485C34.609 17.5229 34.5769 17.6962 34.5113 17.8579C34.4458 18.0197 34.3482 18.1666 34.2244 18.29C34.1006 18.4133 33.9531 18.5106 33.7908 18.5759C33.6284 18.6412 33.4545 18.6732 33.2795 18.6701C32.5759 18.6701 31.9011 18.3916 31.4036 17.8959C30.9061 17.4003 30.6266 16.728 30.6266 16.027V9.37964H29.9501C29.6922 9.37482 29.4413 9.29519 29.2281 9.15049C29.0149 9.00579 28.8487 8.80231 28.7499 8.56495C28.651 8.32759 28.6237 8.06666 28.6714 7.81409C28.719 7.56153 28.8396 7.32829 29.0183 7.14293C29.1396 7.01998 29.2848 6.92289 29.445 6.85758C29.6052 6.79226 29.777 6.76008 29.9501 6.76299H30.6432V3.30385C30.6401 3.13053 30.6734 2.95847 30.7407 2.79863C30.8081 2.6388 30.9081 2.49469 31.0345 2.37547C31.1599 2.25498 31.3079 2.16028 31.47 2.09679C31.6322 2.03329 31.8053 2.00226 31.9795 2.00544C32.1546 2.00231 32.3285 2.03435 32.4908 2.09965C32.6532 2.16495 32.8007 2.26218 32.9245 2.38553C33.0483 2.50887 33.1459 2.65581 33.2114 2.81756C33.277 2.97932 33.3091 3.15257 33.306 3.32698V6.76299H33.8896Z" fill="white"/>
<path d="M39.4043 16.9091C38.8301 16.3709 38.3745 15.7197 38.0662 14.9969C37.758 14.274 37.6038 13.4952 37.6136 12.7099C37.6024 11.9263 37.756 11.149 38.0644 10.4281C38.3728 9.70719 38.8292 9.05855 39.4043 8.52389C39.9648 7.96372 40.6311 7.51971 41.3647 7.21746C42.0984 6.91522 42.8848 6.76074 43.6787 6.76293C45.0578 6.76403 46.3959 7.22978 47.4757 8.08447C47.607 8.18518 47.7169 8.31098 47.7989 8.4545C47.8809 8.59802 47.9334 8.75639 47.9532 8.92035C47.9796 9.08561 47.9708 9.25456 47.9274 9.41621C47.884 9.57787 47.8069 9.72861 47.7012 9.85864C47.6006 9.98929 47.4749 10.0986 47.3314 10.1803C47.1879 10.262 47.0295 10.3144 46.8655 10.3344C46.7026 10.3601 46.5359 10.35 46.3773 10.3049C46.2187 10.2599 46.0718 10.1808 45.9469 10.0734C45.2594 9.56975 44.4259 9.303 43.5726 9.31351C43.1278 9.31611 42.6881 9.40783 42.2797 9.58322C41.8712 9.7586 41.5023 10.0141 41.195 10.3344C40.7217 10.8075 40.3986 11.4088 40.266 12.0636C40.1334 12.7183 40.1971 13.3974 40.4492 14.0163C40.7013 14.6352 41.1306 15.1666 41.6836 15.5441C42.2367 15.9216 42.889 16.1286 43.5593 16.1393C44.4166 16.1488 45.254 15.8823 45.9469 15.3794C46.0721 15.2766 46.2182 15.2021 46.375 15.161C46.5319 15.12 46.6958 15.1133 46.8556 15.1415C47.0212 15.1606 47.1814 15.2125 47.3266 15.2942C47.4718 15.3759 47.5992 15.4858 47.7012 15.6173C47.8056 15.7435 47.882 15.8903 47.9254 16.048C47.9689 16.2057 47.9783 16.3708 47.9532 16.5324C47.9044 16.87 47.7348 17.1785 47.4757 17.4013C46.3773 18.2139 45.0468 18.6549 43.6787 18.6601C42.8846 18.6703 42.0966 18.5204 41.362 18.2195C40.6275 17.9186 39.9615 17.4729 39.4043 16.9091Z" fill="white"/>
<path d="M53.4016 18.2769C53.1533 18.521 52.8185 18.6579 52.4697 18.6579C52.1209 18.6579 51.7861 18.521 51.5379 18.2769C51.4108 18.1581 51.3101 18.0141 51.2421 17.8543C51.1741 17.6944 51.1405 17.5221 51.1433 17.3485V3.30384C51.1406 3.12956 51.1731 2.95651 51.2388 2.79496C51.3045 2.63342 51.4021 2.48666 51.5258 2.36341C51.6495 2.24016 51.7968 2.14291 51.959 2.07745C52.1211 2.01198 52.2948 1.97963 52.4697 1.9823C52.644 1.98519 52.816 2.02228 52.9759 2.09144C53.1358 2.1606 53.2804 2.26048 53.4016 2.38537C53.5241 2.5047 53.6208 2.64774 53.6858 2.80569C53.7508 2.96364 53.7827 3.13316 53.7796 3.30384V7.45348C54.5609 7.01791 55.4379 6.78076 56.333 6.76297C57.019 6.75383 57.6995 6.88551 58.3322 7.14982C58.9649 7.41413 59.5362 7.8054 60.0105 8.29927C60.5021 8.77618 60.8909 9.34795 61.1532 9.97963C61.4154 10.6113 61.5457 11.2896 61.536 11.9732V17.3485C61.5645 17.5366 61.552 17.7287 61.4992 17.9115C61.4464 18.0944 61.3546 18.2637 61.2301 18.4079C61.1055 18.5522 60.9512 18.6679 60.7777 18.7473C60.6041 18.8267 60.4154 18.8677 60.2244 18.8677C60.0335 18.8677 59.8448 18.8267 59.6712 18.7473C59.4976 18.6679 59.3433 18.5522 59.2188 18.4079C59.0943 18.2637 59.0025 18.0944 58.9497 17.9115C58.8969 17.7287 58.8844 17.5366 58.9129 17.3485V11.9732C58.9168 11.6383 58.852 11.3062 58.7225 10.9972C58.5931 10.6881 58.4017 10.4087 58.1602 10.1759C57.9219 9.93317 57.6378 9.7399 57.3242 9.60721C57.0106 9.47451 56.6737 9.40502 56.333 9.40275C55.9978 9.40617 55.6668 9.47632 55.3593 9.60909C55.0517 9.74186 54.774 9.93456 54.5423 10.1759C54.059 10.6505 53.7847 11.297 53.7796 11.9732V17.3485C53.7845 17.5209 53.7535 17.6924 53.6884 17.8522C53.6233 18.0121 53.5256 18.1567 53.4016 18.2769Z" fill="white"/>
<path d="M69.2856 18.8551C69.6702 18.8551 69.982 18.5445 69.982 18.1613C69.982 17.7781 69.6702 17.4675 69.2856 17.4675C68.901 17.4675 68.5893 17.7781 68.5893 18.1613C68.5893 18.5445 68.901 18.8551 69.2856 18.8551Z" fill="url(#paint0_radial_20_463)"/>
<path d="M75.5498 15.8056C76.319 15.8056 76.9425 15.1843 76.9425 14.418C76.9425 13.6516 76.319 13.0304 75.5498 13.0304C74.7806 13.0304 74.157 13.6516 74.157 14.418C74.157 15.1843 74.7806 15.8056 75.5498 15.8056Z" fill="url(#paint1_radial_20_463)"/>
<path d="M69.1464 13.5887C70.0695 13.5887 70.8177 12.8432 70.8177 11.9235C70.8177 11.0039 70.0695 10.2584 69.1464 10.2584C68.2234 10.2584 67.4751 11.0039 67.4751 11.9235C67.4751 12.8432 68.2234 13.5887 69.1464 13.5887Z" fill="url(#paint2_radial_20_463)"/>
<path d="M78.0535 9.14844C79.1285 9.14844 80 8.28016 80 7.20908C80 6.138 79.1285 5.26971 78.0535 5.26971C76.9784 5.26971 76.1069 6.138 76.1069 7.20908C76.1069 8.28016 76.9784 9.14844 78.0535 9.14844Z" fill="url(#paint3_radial_20_463)"/>
<path d="M66.9213 4.98882C68.3041 4.98882 69.425 3.87203 69.425 2.49441C69.425 1.11679 68.3041 0 66.9213 0C65.5386 0 64.4177 1.11679 64.4177 2.49441C64.4177 3.87203 65.5386 4.98882 66.9213 4.98882Z" fill="url(#paint4_radial_20_463)"/>
<path d="M71.0963 17.1932L73.5999 15.5281" stroke="white" stroke-miterlimit="10" stroke-linecap="round"/>
<path d="M73.3214 13.5887L71.7927 12.6174" stroke="white" stroke-miterlimit="10" stroke-linecap="round"/>
<path d="M71.5141 10.6748L75.2712 8.31915" stroke="white" stroke-miterlimit="10" stroke-linecap="round"/>
<path d="M75.2712 6.0989L69.982 3.88202" stroke="white" stroke-miterlimit="10" stroke-linecap="round"/>
<defs>
<radialGradient id="paint0_radial_20_463" cx="0" cy="0" r="1" gradientUnits="userSpaceOnUse" gradientTransform="translate(69.2856 18.1613) rotate(90) scale(0.693809 0.696379)">
<stop stop-color="#61F2E2" stop-opacity="0.46"/>
<stop offset="1" stop-color="#8B7FD8"/>
</radialGradient>
<radialGradient id="paint1_radial_20_463" cx="0" cy="0" r="1" gradientUnits="userSpaceOnUse" gradientTransform="translate(75.5498 14.418) rotate(90) scale(1.38762 1.39276)">
<stop stop-color="#61F2E2" stop-opacity="0.46"/>
<stop offset="1" stop-color="#8B7FD8"/>
</radialGradient>
<radialGradient id="paint2_radial_20_463" cx="0" cy="0" r="1" gradientUnits="userSpaceOnUse" gradientTransform="translate(69.1464 11.9235) rotate(90) scale(1.66514 1.67131)">
<stop stop-color="#61F2E2" stop-opacity="0.46"/>
<stop offset="1" stop-color="#8B7FD8"/>
</radialGradient>
<radialGradient id="paint3_radial_20_463" cx="0" cy="0" r="1" gradientUnits="userSpaceOnUse" gradientTransform="translate(78.0535 7.20908) rotate(90) scale(1.93936 1.94655)">
<stop stop-color="#61F2E2" stop-opacity="0.46"/>
<stop offset="1" stop-color="#8B7FD8"/>
</radialGradient>
<radialGradient id="paint4_radial_20_463" cx="0" cy="0" r="1" gradientUnits="userSpaceOnUse" gradientTransform="translate(66.9213 2.49441) rotate(90) scale(2.49441 2.50366)">
<stop stop-color="#61F2E2" stop-opacity="0.46"/>
<stop offset="1" stop-color="#8B7FD8"/>
</radialGradient>
</defs>
</svg>
